{
 "cells": [
  {
   "cell_type": "markdown",
   "metadata": {},
   "source": [
    "## Create folder structure for images storing"
   ]
  },
  {
   "cell_type": "code",
   "execution_count": 10,
   "metadata": {},
   "outputs": [
    {
     "name": "stdout",
     "output_type": "stream",
     "text": [
      "Creation of the directory ./MCDWT/src/videoTest failed\n",
      "Creation of the directory ./MCDWT/src/videoTest/originals failed\n",
      "Creation of the directory ./MCDWT/src/videoTest/processed failed\n"
     ]
    },
    {
     "ename": "FileNotFoundError",
     "evalue": "[Errno 2] No such file or directory: './MCDWT/src/videoTest/foreman'",
     "output_type": "error",
     "traceback": [
      "\u001b[0;31m---------------------------------------------------------------------------\u001b[0m",
      "\u001b[0;31mFileNotFoundError\u001b[0m                         Traceback (most recent call last)",
      "\u001b[0;32m<ipython-input-10-b6cdddac6042>\u001b[0m in \u001b[0;36m<module>\u001b[0;34m()\u001b[0m\n\u001b[1;32m     27\u001b[0m     \u001b[0mprint\u001b[0m \u001b[0;34m(\u001b[0m\u001b[0;34m\"Successfully created the directory %s \"\u001b[0m \u001b[0;34m%\u001b[0m \u001b[0mprocessedFramesPath\u001b[0m\u001b[0;34m)\u001b[0m\u001b[0;34m\u001b[0m\u001b[0;34m\u001b[0m\u001b[0m\n\u001b[1;32m     28\u001b[0m \u001b[0;34m\u001b[0m\u001b[0m\n\u001b[0;32m---> 29\u001b[0;31m \u001b[0murllib\u001b[0m\u001b[0;34m.\u001b[0m\u001b[0mrequest\u001b[0m\u001b[0;34m.\u001b[0m\u001b[0murlretrieve\u001b[0m\u001b[0;34m(\u001b[0m\u001b[0;34m'https://media.xiph.org/video/derf/y4m/foreman_qcif.y4m'\u001b[0m\u001b[0;34m,\u001b[0m \u001b[0mpath\u001b[0m \u001b[0;34m+\u001b[0m \u001b[0;34m\"/foreman\"\u001b[0m\u001b[0;34m)\u001b[0m\u001b[0;34m\u001b[0m\u001b[0;34m\u001b[0m\u001b[0m\n\u001b[0m",
      "\u001b[0;32m/usr/lib/python3.6/urllib/request.py\u001b[0m in \u001b[0;36murlretrieve\u001b[0;34m(url, filename, reporthook, data)\u001b[0m\n\u001b[1;32m    256\u001b[0m         \u001b[0;31m# Handle temporary file setup.\u001b[0m\u001b[0;34m\u001b[0m\u001b[0;34m\u001b[0m\u001b[0;34m\u001b[0m\u001b[0m\n\u001b[1;32m    257\u001b[0m         \u001b[0;32mif\u001b[0m \u001b[0mfilename\u001b[0m\u001b[0;34m:\u001b[0m\u001b[0;34m\u001b[0m\u001b[0;34m\u001b[0m\u001b[0m\n\u001b[0;32m--> 258\u001b[0;31m             \u001b[0mtfp\u001b[0m \u001b[0;34m=\u001b[0m \u001b[0mopen\u001b[0m\u001b[0;34m(\u001b[0m\u001b[0mfilename\u001b[0m\u001b[0;34m,\u001b[0m \u001b[0;34m'wb'\u001b[0m\u001b[0;34m)\u001b[0m\u001b[0;34m\u001b[0m\u001b[0;34m\u001b[0m\u001b[0m\n\u001b[0m\u001b[1;32m    259\u001b[0m         \u001b[0;32melse\u001b[0m\u001b[0;34m:\u001b[0m\u001b[0;34m\u001b[0m\u001b[0;34m\u001b[0m\u001b[0m\n\u001b[1;32m    260\u001b[0m             \u001b[0mtfp\u001b[0m \u001b[0;34m=\u001b[0m \u001b[0mtempfile\u001b[0m\u001b[0;34m.\u001b[0m\u001b[0mNamedTemporaryFile\u001b[0m\u001b[0;34m(\u001b[0m\u001b[0mdelete\u001b[0m\u001b[0;34m=\u001b[0m\u001b[0;32mFalse\u001b[0m\u001b[0;34m)\u001b[0m\u001b[0;34m\u001b[0m\u001b[0;34m\u001b[0m\u001b[0m\n",
      "\u001b[0;31mFileNotFoundError\u001b[0m: [Errno 2] No such file or directory: './MCDWT/src/videoTest/foreman'"
     ]
    }
   ],
   "source": [
    "import urllib.request\n",
    "import os\n",
    "\n",
    "path = \"./MCDWT/src/videoTest\"\n",
    "originalFramesPath = \"./MCDWT/src/videoTest/originals\"\n",
    "processedFramesPath = \"./MCDWT/src/videoTest/processed\"\n",
    "\n",
    "try:\n",
    "    os.mkdir(path)\n",
    "except OSError:\n",
    "    print (\"Creation of the directory %s failed\" % path)\n",
    "else:\n",
    "    print (\"Successfully created the directory %s \" % path)\n",
    "\n",
    "try:\n",
    "    os.mkdir(originalFramesPath)\n",
    "except OSError:\n",
    "    print (\"Creation of the directory %s failed\" % originalFramesPath)\n",
    "else:\n",
    "    print (\"Successfully created the directory %s \" % originalFramesPath)\n",
    "    \n",
    "try:\n",
    "    os.mkdir(processedFramesPath)\n",
    "except OSError:\n",
    "    print (\"Creation of the directory %s failed\" % processedFramesPath)\n",
    "else:\n",
    "    print (\"Successfully created the directory %s \" % processedFramesPath)\n",
    "    \n",
    "urllib.request.urlretrieve('https://media.xiph.org/video/derf/y4m/foreman_qcif.y4m', path + \"/foreman\") "
   ]
  },
  {
   "cell_type": "markdown",
   "metadata": {},
   "source": [
    "## Set code for 1 iteration"
   ]
  },
  {
   "cell_type": "code",
   "execution_count": 4,
   "metadata": {
    "scrolled": true
   },
   "outputs": [
    {
     "name": "stdout",
     "output_type": "stream",
     "text": [
      "rm: no se puede borrar '/tmp/videoTest/originals/*.png': No existe el archivo o el directorio\n",
      "ffmpeg version 3.4.6-0ubuntu0.18.04.1 Copyright (c) 2000-2019 the FFmpeg developers\n",
      "  built with gcc 7 (Ubuntu 7.3.0-16ubuntu3)\n",
      "  configuration: --prefix=/usr --extra-version=0ubuntu0.18.04.1 --toolchain=hardened --libdir=/usr/lib/x86_64-linux-gnu --incdir=/usr/include/x86_64-linux-gnu --enable-gpl --disable-stripping --enable-avresample --enable-avisynth --enable-gnutls --enable-ladspa --enable-libass --enable-libbluray --enable-libbs2b --enable-libcaca --enable-libcdio --enable-libflite --enable-libfontconfig --enable-libfreetype --enable-libfribidi --enable-libgme --enable-libgsm --enable-libmp3lame --enable-libmysofa --enable-libopenjpeg --enable-libopenmpt --enable-libopus --enable-libpulse --enable-librubberband --enable-librsvg --enable-libshine --enable-libsnappy --enable-libsoxr --enable-libspeex --enable-libssh --enable-libtheora --enable-libtwolame --enable-libvorbis --enable-libvpx --enable-libwavpack --enable-libwebp --enable-libx265 --enable-libxml2 --enable-libxvid --enable-libzmq --enable-libzvbi --enable-omx --enable-openal --enable-opengl --enable-sdl2 --enable-libdc1394 --enable-libdrm --enable-libiec61883 --enable-chromaprint --enable-frei0r --enable-libopencv --enable-libx264 --enable-shared\n",
      "  WARNING: library configuration mismatch\n",
      "  avcodec     configuration: --prefix=/usr --extra-version=0ubuntu0.18.04.1 --toolchain=hardened --libdir=/usr/lib/x86_64-linux-gnu --incdir=/usr/include/x86_64-linux-gnu --enable-gpl --disable-stripping --enable-avresample --enable-avisynth --enable-gnutls --enable-ladspa --enable-libass --enable-libbluray --enable-libbs2b --enable-libcaca --enable-libcdio --enable-libflite --enable-libfontconfig --enable-libfreetype --enable-libfribidi --enable-libgme --enable-libgsm --enable-libmp3lame --enable-libmysofa --enable-libopenjpeg --enable-libopenmpt --enable-libopus --enable-libpulse --enable-librubberband --enable-librsvg --enable-libshine --enable-libsnappy --enable-libsoxr --enable-libspeex --enable-libssh --enable-libtheora --enable-libtwolame --enable-libvorbis --enable-libvpx --enable-libwavpack --enable-libwebp --enable-libx265 --enable-libxml2 --enable-libxvid --enable-libzmq --enable-libzvbi --enable-omx --enable-openal --enable-opengl --enable-sdl2 --enable-libdc1394 --enable-libdrm --enable-libiec61883 --enable-chromaprint --enable-frei0r --enable-libopencv --enable-libx264 --enable-shared --enable-version3 --disable-doc --disable-programs --enable-libopencore_amrnb --enable-libopencore_amrwb --enable-libtesseract --enable-libvo_amrwbenc\n",
      "  libavutil      55. 78.100 / 55. 78.100\n",
      "  libavcodec     57.107.100 / 57.107.100\n",
      "  libavformat    57. 83.100 / 57. 83.100\n",
      "  libavdevice    57. 10.100 / 57. 10.100\n",
      "  libavfilter     6.107.100 /  6.107.100\n",
      "  libavresample   3.  7.  0 /  3.  7.  0\n",
      "  libswscale      4.  8.100 /  4.  8.100\n",
      "  libswresample   2.  9.100 /  2.  9.100\n",
      "  libpostproc    54.  7.100 / 54.  7.100\n",
      "Input #0, yuv4mpegpipe, from '/tmp/videoTest/foreman':\n",
      "  Duration: 00:00:10.01, start: 0.000000, bitrate: 9116 kb/s\n",
      "    Stream #0:0: Video: rawvideo (I420 / 0x30323449), yuv420p(progressive), 176x144, SAR 128:117 DAR 1408:1053, 29.97 fps, 29.97 tbr, 29.97 tbn, 29.97 tbc\n",
      "Stream mapping:\n",
      "  Stream #0:0 -> #0:0 (rawvideo (native) -> png (native))\n",
      "Press [q] to stop, [?] for help\n",
      "Output #0, image2, to '/tmp/videoTest/originals/%03d.png':\n",
      "  Metadata:\n",
      "    encoder         : Lavf57.83.100\n",
      "    Stream #0:0: Video: png, rgb24, 176x144 [SAR 128:117 DAR 1408:1053], q=2-31, 200 kb/s, 29.97 fps, 29.97 tbn, 29.97 tbc\n",
      "    Metadata:\n",
      "      encoder         : Lavc57.107.100 png\n",
      "frame=    2 fps=0.0 q=-0.0 Lsize=N/A time=00:00:00.06 bitrate=N/A speed=13.5x    \n",
      "video:106kB audio:0kB subtitle:0kB other streams:0kB global headers:0kB muxing overhead: unknown\n",
      "Successfully created the directory /tmp/videoTest/processed/itNum1 \n",
      "Collecting pywavelets\n",
      "  Downloading https://files.pythonhosted.org/packages/59/bb/d2b85265ec9fa3c1922210c9393d4cdf7075cc87cce6fe671d7455f80fbc/PyWavelets-1.1.1-cp36-cp36m-manylinux1_x86_64.whl (4.4MB)\n",
      "\u001b[K    100% |████████████████████████████████| 4.4MB 323kB/s ta 0:00:01\n",
      "\u001b[?25hCollecting numpy>=1.13.3 (from pywavelets)\n",
      "  Downloading https://files.pythonhosted.org/packages/62/20/4d43e141b5bc426ba38274933ef8e76e85c7adea2c321ecf9ebf7421cedf/numpy-1.18.1-cp36-cp36m-manylinux1_x86_64.whl (20.1MB)\n",
      "\u001b[K    100% |████████████████████████████████| 20.2MB 77kB/s eta 0:00:01\n",
      "\u001b[?25hInstalling collected packages: numpy, pywavelets\n",
      "Successfully installed numpy-1.18.1 pywavelets-1.1.1\n",
      "Collecting opencv-python\n",
      "  Downloading https://files.pythonhosted.org/packages/68/c5/09a1b82f940805c2cee30c3c42786651edcfd0710a0283eb09c6bc959340/opencv_python-4.2.0.32-cp36-cp36m-manylinux1_x86_64.whl (28.2MB)\n",
      "\u001b[K    100% |████████████████████████████████| 28.2MB 54kB/s eta 0:00:011\n",
      "\u001b[?25hCollecting numpy>=1.11.3 (from opencv-python)\n",
      "  Using cached https://files.pythonhosted.org/packages/62/20/4d43e141b5bc426ba38274933ef8e76e85c7adea2c321ecf9ebf7421cedf/numpy-1.18.1-cp36-cp36m-manylinux1_x86_64.whl\n",
      "Installing collected packages: numpy, opencv-python\n",
      "Successfully installed numpy-1.18.1 opencv-python-4.2.0.32\n",
      "Traceback (most recent call last):\n",
      "  File \"MDWT.py\", line 97, in <module>\n",
      "    p = d.forward(args.prefix, args.N)\n",
      "  File \"MDWT.py\", line 40, in forward\n",
      "    img = image.read(prefix, \"{:03d}\".format(i))\n",
      "  File \"../src/IO/image.py\", line 35, in read\n",
      "    image = cv2.imread(fn, cv2.IMREAD_UNCHANGED)\n",
      "NameError: name 'cv2' is not defined\n",
      "IO::decomposition::readL: warning: subband /tmp/LL000.png does not exist\n",
      "Traceback (most recent call last):\n",
      "  File \"MCDWT.py\", line 242, in <module>\n",
      "    d = MCDWT(p.shape)\n",
      "AttributeError: 'NoneType' object has no attribute 'shape'\n",
      "cp: no se puede efectuar `stat' sobre '/tmp/H????.png': No existe el archivo o el directorio\n",
      "cp: no se puede efectuar `stat' sobre '/tmp/L????.png': No existe el archivo o el directorio\n",
      "Peso de la carpeta con las imagenes orginales: 108820\n",
      "Peso de la carpeta con las imagenes orginales: 0\n"
     ]
    },
    {
     "ename": "ZeroDivisionError",
     "evalue": "division by zero",
     "output_type": "error",
     "traceback": [
      "\u001b[0;31m---------------------------------------------------------------------------\u001b[0m",
      "\u001b[0;31mZeroDivisionError\u001b[0m                         Traceback (most recent call last)",
      "\u001b[0;32m<ipython-input-4-4cd92ee68187>\u001b[0m in \u001b[0;36m<module>\u001b[0;34m()\u001b[0m\n\u001b[1;32m     54\u001b[0m \u001b[0;34m\u001b[0m\u001b[0m\n\u001b[1;32m     55\u001b[0m \u001b[0;31m#Show compression ratio\u001b[0m\u001b[0;34m\u001b[0m\u001b[0;34m\u001b[0m\u001b[0;34m\u001b[0m\u001b[0m\n\u001b[0;32m---> 56\u001b[0;31m \u001b[0mprint\u001b[0m\u001b[0;34m(\u001b[0m\u001b[0;34m\"Ratio de compresión: \"\u001b[0m \u001b[0;34m+\u001b[0m \u001b[0mstr\u001b[0m\u001b[0;34m(\u001b[0m\u001b[0moriginalsWeight\u001b[0m\u001b[0;34m/\u001b[0m\u001b[0mprocessedWeight\u001b[0m\u001b[0;34m)\u001b[0m\u001b[0;34m)\u001b[0m\u001b[0;34m\u001b[0m\u001b[0;34m\u001b[0m\u001b[0m\n\u001b[0m\u001b[1;32m     57\u001b[0m \u001b[0;34m\u001b[0m\u001b[0m\n\u001b[1;32m     58\u001b[0m \u001b[0;31m#Remove directory temp\u001b[0m\u001b[0;34m\u001b[0m\u001b[0;34m\u001b[0m\u001b[0;34m\u001b[0m\u001b[0m\n",
      "\u001b[0;31mZeroDivisionError\u001b[0m: division by zero"
     ]
    }
   ],
   "source": [
    "predictor=1 \n",
    "iterations=1\n",
    "gop = pow(2, iterations)\n",
    "num_images = gop - 1\n",
    "\n",
    "#Remove old pictures\n",
    "!rm ./MCDWT/src/videoTest/originals/*.png\n",
    "\n",
    "#Invoke ffmpeg command to extract GOP\n",
    "!ffmpeg -i './MCDWT/src/videoTest/foreman' -vframes $gop './MCDWT/src/videoTest/originals/'%03d.png\n",
    "\n",
    "#Rename files\n",
    "for i in range(gop):\n",
    "    os.rename(\"./MCDWT/src/videoTest/originals/00\" + str(i+1) + \".png\", \"./MCDWT/src/videoTest/originals/00\" + str(i) + \".png\")\n",
    "\n",
    "#Create folder for processed images\n",
    "folderPath = \"./MCDWT/src/videoTest/processed/itNum\" + str(iterations)\n",
    "\n",
    "try:\n",
    "    os.mkdir(folderPath)\n",
    "except OSError:\n",
    "    print (\"Creation of the directory %s failed\" % folderPath)\n",
    "else:\n",
    "    print (\"Successfully created the directory %s \" % folderPath)\n",
    "    \n",
    "#Copy original images to /tmp folder for working in order place \n",
    "!cp ./MCDWT/src/videoTest/originals/*.png /tmp\n",
    "\n",
    "#Execute compression scripts\n",
    "!python3 -O MDWT.py -p /tmp/ -N $num_images\n",
    "!python3 -O MCDWT.py -P $predictor -p /tmp/ -T $iterations -N $num_images\n",
    "\n",
    "#Copy high sub-bands images into processed folder\n",
    "!cp /tmp/H????.png $folderPath\n",
    "\n",
    "#Copy low sub-bands images into processed folder\n",
    "!cp /tmp/L????.png $folderPath\n",
    "\n",
    "#Remove all PNG files from /tmp\n",
    "!rm /tmp/*.png\n",
    "\n",
    "#Calculate wieght of folder with originals images\n",
    "originalsWeight = calcular_directorio(r\"./MCDWT/src/videoTest/originals\")\n",
    "print(\"Peso de la carpeta con las imagenes orginales: \"+str(originalsWeight))\n",
    "\n",
    "#Calculate weight of folder with processed images\n",
    "processedWeight = calcular_directorio(r\"./MCDWT/src/videoTest/processed/itNum\" + str(iterations))\n",
    "print(\"Peso de la carpeta con las imagenes orginales: \"+str(processedWeight))\n",
    "\n",
    "#Show compression ratio\n",
    "print(\"Ratio de compresión: \" + str(originalsWeight/processedWeight))\n",
    "\n",
    "!rm -rf ./MCDWT/src/videoTest"
   ]
  },
  {
   "cell_type": "markdown",
   "metadata": {},
   "source": [
    "## Set code for 2 iterations"
   ]
  },
  {
   "cell_type": "code",
   "execution_count": 17,
   "metadata": {},
   "outputs": [
    {
     "name": "stdout",
     "output_type": "stream",
     "text": [
      "ffmpeg version 2.8.15-0ubuntu0.16.04.1 Copyright (c) 2000-2018 the FFmpeg developers\n",
      "  built with gcc 5.4.0 (Ubuntu 5.4.0-6ubuntu1~16.04.10) 20160609\n",
      "  configuration: --prefix=/usr --extra-version=0ubuntu0.16.04.1 --build-suffix=-ffmpeg --toolchain=hardened --libdir=/usr/lib/x86_64-linux-gnu --incdir=/usr/include/x86_64-linux-gnu --cc=cc --cxx=g++ --enable-gpl --enable-shared --disable-stripping --disable-decoder=libopenjpeg --disable-decoder=libschroedinger --enable-avresample --enable-avisynth --enable-gnutls --enable-ladspa --enable-libass --enable-libbluray --enable-libbs2b --enable-libcaca --enable-libcdio --enable-libflite --enable-libfontconfig --enable-libfreetype --enable-libfribidi --enable-libgme --enable-libgsm --enable-libmodplug --enable-libmp3lame --enable-libopenjpeg --enable-libopus --enable-libpulse --enable-librtmp --enable-libschroedinger --enable-libshine --enable-libsnappy --enable-libsoxr --enable-libspeex --enable-libssh --enable-libtheora --enable-libtwolame --enable-libvorbis --enable-libvpx --enable-libwavpack --enable-libwebp --enable-libx265 --enable-libxvid --enable-libzvbi --enable-openal --enable-opengl --enable-x11grab --enable-libdc1394 --enable-libiec61883 --enable-libzmq --enable-frei0r --enable-libx264 --enable-libopencv\n",
      "  libavutil      54. 31.100 / 54. 31.100\n",
      "  libavcodec     56. 60.100 / 56. 60.100\n",
      "  libavformat    56. 40.101 / 56. 40.101\n",
      "  libavdevice    56.  4.100 / 56.  4.100\n",
      "  libavfilter     5. 40.101 /  5. 40.101\n",
      "  libavresample   2.  1.  0 /  2.  1.  0\n",
      "  libswscale      3.  1.101 /  3.  1.101\n",
      "  libswresample   1.  2.101 /  1.  2.101\n",
      "  libpostproc    53.  3.100 / 53.  3.100\n",
      "Input #0, yuv4mpegpipe, from '/home/josecarlosfuentes/Documentos/MCDWT/src/videoTest/foreman':\n",
      "  Duration: 00:00:10.01, start: 0.000000, bitrate: 9116 kb/s\n",
      "    Stream #0:0: Video: rawvideo (I420 / 0x30323449), yuv420p, 176x144, SAR 128:117 DAR 1408:1053, 29.97 fps, 29.97 tbr, 29.97 tbn, 29.97 tbc\n",
      "Output #0, image2, to '/home/josecarlosfuentes/Documentos/MCDWT/src/videoTest/originals/%03d.png':\n",
      "  Metadata:\n",
      "    encoder         : Lavf56.40.101\n",
      "    Stream #0:0: Video: png, rgb24, 176x144 [SAR 128:117 DAR 1408:1053], q=2-31, 200 kb/s, 29.97 fps, 29.97 tbn, 29.97 tbc\n",
      "    Metadata:\n",
      "      encoder         : Lavc56.60.100 png\n",
      "Stream mapping:\n",
      "  Stream #0:0 -> #0:0 (rawvideo (native) -> png (native))\n",
      "Press [q] to stop, [?] for help\n",
      "frame=    4 fps=0.0 q=-0.0 Lsize=N/A time=00:00:00.13 bitrate=N/A    \n",
      "video:213kB audio:0kB subtitle:0kB other streams:0kB global headers:0kB muxing overhead: unknown\n",
      "Creation of the directory /home/josecarlosfuentes/Documentos/MCDWT/src/videoTest/processed/itNum2 failed\n",
      "a=2 Peso de la carpeta con las imagenes orginales: 272605\n",
      "Peso de la carpeta con las imagenes orginales: 203022\n",
      "Ratio de compresión: 1.3427362551841673\n"
     ]
    }
   ],
   "source": [
    "predictor=1 \n",
    "iterations=2\n",
    "gop = pow(2, iterations)\n",
    "num_images = gop - 1\n",
    "\n",
    "#Remove old pictures\n",
    "!rm /home/josecarlosfuentes/Documentos/MCDWT/src/videoTest/originals/*.png\n",
    "\n",
    "#Invoke ffmpeg command to extract GOP\n",
    "!ffmpeg -i '/home/josecarlosfuentes/Documentos/MCDWT/src/videoTest/foreman' -vframes $gop '/home/josecarlosfuentes/Documentos/MCDWT/src/videoTest/originals/'%03d.png\n",
    "\n",
    "#Rename files\n",
    "for i in range(gop):\n",
    "    os.rename(\"/home/josecarlosfuentes/Documentos/MCDWT/src/videoTest/originals/00\" + str(i+1) + \".png\", \"/home/josecarlosfuentes/Documentos/MCDWT/src/videoTest/originals/00\" + str(i) + \".png\")\n",
    "\n",
    "#Create folder for processed images\n",
    "folderPath = \"/home/josecarlosfuentes/Documentos/MCDWT/src/videoTest/processed/itNum\" + str(iterations)\n",
    "\n",
    "try:\n",
    "    os.mkdir(folderPath)\n",
    "except OSError:\n",
    "    print (\"Creation of the directory %s failed\" % folderPath)\n",
    "else:\n",
    "    print (\"Successfully created the directory %s \" % folderPath)\n",
    "    \n",
    "#Copy original images to /tmp folder for working in order place \n",
    "!cp /home/josecarlosfuentes/Documentos/MCDWT/src/videoTest/originals/*.png /tmp\n",
    "\n",
    "#Execute compression scripts\n",
    "!python3 -O MDWT.py -p /tmp/ -N $num_images\n",
    "!python3 -O MCDWT.py -P $predictor -p /tmp/ -T $iterations -N $num_images\n",
    "\n",
    "#Copy high sub-bands images into processed folder\n",
    "!cp /tmp/H????.png $folderPath\n",
    "\n",
    "#Copy low sub-bands images into processed folder\n",
    "!cp /tmp/L????.png $folderPath\n",
    "\n",
    "#Remove all PNG files from /tmp\n",
    "!rm /tmp/*.png\n",
    "\n",
    "#Calculate wieght of folder with originals images\n",
    "originalsWeight = calcular_directorio(r\"/home/josecarlosfuentes/Documentos/MCDWT/src/videoTest/originals\")\n",
    "print(\"Peso de la carpeta con las imagenes orginales: \"+str(originalsWeight))\n",
    "\n",
    "#Calculate weight of folder with processed images\n",
    "processedWeight = calcular_directorio(r\"/home/josecarlosfuentes/Documentos/MCDWT/src/videoTest/processed/itNum\" + str(iterations))\n",
    "print(\"Peso de la carpeta con las imagenes orginales: \"+str(processedWeight))\n",
    "\n",
    "#Show compression ratio\n",
    "print(\"Ratio de compresión: \" + str(originalsWeight/processedWeight))"
   ]
  },
  {
   "cell_type": "markdown",
   "metadata": {},
   "source": [
    "## Set code for 5 iterations"
   ]
  },
  {
   "cell_type": "code",
   "execution_count": 18,
   "metadata": {},
   "outputs": [
    {
     "name": "stdout",
     "output_type": "stream",
     "text": [
      "ffmpeg version 2.8.15-0ubuntu0.16.04.1 Copyright (c) 2000-2018 the FFmpeg developers\n",
      "  built with gcc 5.4.0 (Ubuntu 5.4.0-6ubuntu1~16.04.10) 20160609\n",
      "  configuration: --prefix=/usr --extra-version=0ubuntu0.16.04.1 --build-suffix=-ffmpeg --toolchain=hardened --libdir=/usr/lib/x86_64-linux-gnu --incdir=/usr/include/x86_64-linux-gnu --cc=cc --cxx=g++ --enable-gpl --enable-shared --disable-stripping --disable-decoder=libopenjpeg --disable-decoder=libschroedinger --enable-avresample --enable-avisynth --enable-gnutls --enable-ladspa --enable-libass --enable-libbluray --enable-libbs2b --enable-libcaca --enable-libcdio --enable-libflite --enable-libfontconfig --enable-libfreetype --enable-libfribidi --enable-libgme --enable-libgsm --enable-libmodplug --enable-libmp3lame --enable-libopenjpeg --enable-libopus --enable-libpulse --enable-librtmp --enable-libschroedinger --enable-libshine --enable-libsnappy --enable-libsoxr --enable-libspeex --enable-libssh --enable-libtheora --enable-libtwolame --enable-libvorbis --enable-libvpx --enable-libwavpack --enable-libwebp --enable-libx265 --enable-libxvid --enable-libzvbi --enable-openal --enable-opengl --enable-x11grab --enable-libdc1394 --enable-libiec61883 --enable-libzmq --enable-frei0r --enable-libx264 --enable-libopencv\n",
      "  libavutil      54. 31.100 / 54. 31.100\n",
      "  libavcodec     56. 60.100 / 56. 60.100\n",
      "  libavformat    56. 40.101 / 56. 40.101\n",
      "  libavdevice    56.  4.100 / 56.  4.100\n",
      "  libavfilter     5. 40.101 /  5. 40.101\n",
      "  libavresample   2.  1.  0 /  2.  1.  0\n",
      "  libswscale      3.  1.101 /  3.  1.101\n",
      "  libswresample   1.  2.101 /  1.  2.101\n",
      "  libpostproc    53.  3.100 / 53.  3.100\n",
      "Input #0, yuv4mpegpipe, from '/home/josecarlosfuentes/Documentos/MCDWT/src/videoTest/foreman':\n",
      "  Duration: 00:00:10.01, start: 0.000000, bitrate: 9116 kb/s\n",
      "    Stream #0:0: Video: rawvideo (I420 / 0x30323449), yuv420p, 176x144, SAR 128:117 DAR 1408:1053, 29.97 fps, 29.97 tbr, 29.97 tbn, 29.97 tbc\n",
      "Output #0, image2, to '/home/josecarlosfuentes/Documentos/MCDWT/src/videoTest/originals/%03d.png':\n",
      "  Metadata:\n",
      "    encoder         : Lavf56.40.101\n",
      "    Stream #0:0: Video: png, rgb24, 176x144 [SAR 128:117 DAR 1408:1053], q=2-31, 200 kb/s, 29.97 fps, 29.97 tbn, 29.97 tbc\n",
      "    Metadata:\n",
      "      encoder         : Lavc56.60.100 png\n",
      "Stream mapping:\n",
      "  Stream #0:0 -> #0:0 (rawvideo (native) -> png (native))\n",
      "Press [q] to stop, [?] for help\n",
      "frame=   32 fps=0.0 q=-0.0 Lsize=N/A time=00:00:01.06 bitrate=N/A    \n",
      "video:1723kB audio:0kB subtitle:0kB other streams:0kB global headers:0kB muxing overhead: unknown\n",
      "Creation of the directory /home/josecarlosfuentes/Documentos/MCDWT/src/videoTest/processed/itNum5 failed\n",
      "a=2 a=4 a=6 a=8 a=10 a=12 a=14 a=16 a=18 a=20 a=22 a=24 a=26 a=28 a=30 a=4 a=8 a=12 a=16 a=20 a=24 a=28 a=8 a=16 a=24 a=16 Peso de la carpeta con las imagenes orginales: 1818621\n",
      "Peso de la carpeta con las imagenes orginales: 2144910\n",
      "Ratio de compresión: 0.8478775333230765\n"
     ]
    }
   ],
   "source": [
    "predictor=1 \n",
    "iterations=5\n",
    "gop = pow(2, iterations)\n",
    "num_images = gop - 1\n",
    "\n",
    "#Remove old pictures\n",
    "!rm /home/josecarlosfuentes/Documentos/MCDWT/src/videoTest/originals/*.png\n",
    "\n",
    "#Invoke ffmpeg command to extract GOP\n",
    "!ffmpeg -i '/home/josecarlosfuentes/Documentos/MCDWT/src/videoTest/foreman' -vframes $gop '/home/josecarlosfuentes/Documentos/MCDWT/src/videoTest/originals/'%03d.png\n",
    "\n",
    "#Rename files\n",
    "!cp /home/josecarlosfuentes/Documentos/MCDWT/src/videoTest/originals/001.png /home/josecarlosfuentes/Documentos/MCDWT/src/videoTest/originals/000.png \n",
    "\n",
    "#Create folder for processed images\n",
    "folderPath = \"/home/josecarlosfuentes/Documentos/MCDWT/src/videoTest/processed/itNum\" + str(iterations)\n",
    "\n",
    "try:\n",
    "    os.mkdir(folderPath)\n",
    "except OSError:\n",
    "    print (\"Creation of the directory %s failed\" % folderPath)\n",
    "else:\n",
    "    print (\"Successfully created the directory %s \" % folderPath)\n",
    "    \n",
    "#Copy original images to /tmp folder for working in order place \n",
    "!cp /home/josecarlosfuentes/Documentos/MCDWT/src/videoTest/originals/*.png /tmp\n",
    "\n",
    "#Execute compression scripts\n",
    "!python3 -O MDWT.py -p /tmp/ -N $num_images\n",
    "!python3 -O MCDWT.py -P $predictor -p /tmp/ -T $iterations -N $num_images\n",
    "\n",
    "#Copy high sub-bands images into processed folder\n",
    "!cp /tmp/H????.png $folderPath\n",
    "\n",
    "#Copy low sub-bands images into processed folder\n",
    "!cp /tmp/L????.png $folderPath\n",
    "\n",
    "#Remove all PNG files from /tmp\n",
    "!rm /tmp/*.png\n",
    "\n",
    "#Calculate wieght of folder with originals images\n",
    "originalsWeight = calcular_directorio(r\"/home/josecarlosfuentes/Documentos/MCDWT/src/videoTest/originals\")\n",
    "print(\"Peso de la carpeta con las imagenes orginales: \"+str(originalsWeight))\n",
    "\n",
    "#Calculate weight of folder with processed images\n",
    "processedWeight = calcular_directorio(r\"/home/josecarlosfuentes/Documentos/MCDWT/src/videoTest/processed/itNum\" + str(iterations))\n",
    "print(\"Peso de la carpeta con las imagenes orginales: \"+str(processedWeight))\n",
    "\n",
    "#Show compression ratio\n",
    "print(\"Ratio de compresión: \" + str(originalsWeight/processedWeight))"
   ]
  },
  {
   "cell_type": "markdown",
   "metadata": {},
   "source": [
    "## Set code for 8 iterations"
   ]
  },
  {
   "cell_type": "code",
   "execution_count": 20,
   "metadata": {},
   "outputs": [
    {
     "name": "stdout",
     "output_type": "stream",
     "text": [
      "ffmpeg version 2.8.15-0ubuntu0.16.04.1 Copyright (c) 2000-2018 the FFmpeg developers\n",
      "  built with gcc 5.4.0 (Ubuntu 5.4.0-6ubuntu1~16.04.10) 20160609\n",
      "  configuration: --prefix=/usr --extra-version=0ubuntu0.16.04.1 --build-suffix=-ffmpeg --toolchain=hardened --libdir=/usr/lib/x86_64-linux-gnu --incdir=/usr/include/x86_64-linux-gnu --cc=cc --cxx=g++ --enable-gpl --enable-shared --disable-stripping --disable-decoder=libopenjpeg --disable-decoder=libschroedinger --enable-avresample --enable-avisynth --enable-gnutls --enable-ladspa --enable-libass --enable-libbluray --enable-libbs2b --enable-libcaca --enable-libcdio --enable-libflite --enable-libfontconfig --enable-libfreetype --enable-libfribidi --enable-libgme --enable-libgsm --enable-libmodplug --enable-libmp3lame --enable-libopenjpeg --enable-libopus --enable-libpulse --enable-librtmp --enable-libschroedinger --enable-libshine --enable-libsnappy --enable-libsoxr --enable-libspeex --enable-libssh --enable-libtheora --enable-libtwolame --enable-libvorbis --enable-libvpx --enable-libwavpack --enable-libwebp --enable-libx265 --enable-libxvid --enable-libzvbi --enable-openal --enable-opengl --enable-x11grab --enable-libdc1394 --enable-libiec61883 --enable-libzmq --enable-frei0r --enable-libx264 --enable-libopencv\n",
      "  libavutil      54. 31.100 / 54. 31.100\n",
      "  libavcodec     56. 60.100 / 56. 60.100\n",
      "  libavformat    56. 40.101 / 56. 40.101\n",
      "  libavdevice    56.  4.100 / 56.  4.100\n",
      "  libavfilter     5. 40.101 /  5. 40.101\n",
      "  libavresample   2.  1.  0 /  2.  1.  0\n",
      "  libswscale      3.  1.101 /  3.  1.101\n",
      "  libswresample   1.  2.101 /  1.  2.101\n",
      "  libpostproc    53.  3.100 / 53.  3.100\n",
      "Input #0, yuv4mpegpipe, from '/home/josecarlosfuentes/Documentos/MCDWT/src/videoTest/foreman':\n",
      "  Duration: 00:00:10.01, start: 0.000000, bitrate: 9116 kb/s\n",
      "    Stream #0:0: Video: rawvideo (I420 / 0x30323449), yuv420p, 176x144, SAR 128:117 DAR 1408:1053, 29.97 fps, 29.97 tbr, 29.97 tbn, 29.97 tbc\n",
      "Output #0, image2, to '/home/josecarlosfuentes/Documentos/MCDWT/src/videoTest/originals/%03d.png':\n",
      "  Metadata:\n",
      "    encoder         : Lavf56.40.101\n",
      "    Stream #0:0: Video: png, rgb24, 176x144 [SAR 128:117 DAR 1408:1053], q=2-31, 200 kb/s, 29.97 fps, 29.97 tbn, 29.97 tbc\n",
      "    Metadata:\n",
      "      encoder         : Lavc56.60.100 png\n",
      "Stream mapping:\n",
      "  Stream #0:0 -> #0:0 (rawvideo (native) -> png (native))\n",
      "Press [q] to stop, [?] for help\n",
      "frame=  256 fps=0.0 q=-0.0 Lsize=N/A time=00:00:08.54 bitrate=N/A    \n",
      "video:13825kB audio:0kB subtitle:0kB other streams:0kB global headers:0kB muxing overhead: unknown\n",
      "Successfully created the directory /home/josecarlosfuentes/Documentos/MCDWT/src/videoTest/processed/itNum8 \n",
      "a=2 a=4 a=6 a=8 a=10 a=12 a=14 a=16 a=18 a=20 a=22 a=24 a=26 a=28 a=30 a=32 a=34 a=36 a=38 a=40 a=42 a=44 a=46 a=48 a=50 a=52 a=54 a=56 a=58 a=60 a=62 a=64 a=66 a=68 a=70 a=72 a=74 a=76 a=78 a=80 a=82 a=84 a=86 a=88 a=90 a=92 a=94 a=96 a=98 a=100 a=102 a=104 a=106 a=108 a=110 a=112 a=114 a=116 a=118 a=120 a=122 a=124 a=126 a=128 a=130 a=132 a=134 a=136 a=138 a=140 a=142 a=144 a=146 a=148 a=150 a=152 a=154 a=156 a=158 a=160 a=162 a=164 a=166 a=168 a=170 a=172 a=174 a=176 a=178 a=180 a=182 a=184 a=186 a=188 a=190 a=192 a=194 a=196 a=198 a=200 a=202 a=204 a=206 a=208 a=210 a=212 a=214 a=216 a=218 a=220 a=222 a=224 a=226 a=228 a=230 a=232 a=234 a=236 a=238 a=240 a=242 a=244 a=246 a=248 a=250 a=252 a=254 a=4 a=8 a=12 a=16 a=20 a=24 a=28 a=32 a=36 a=40 a=44 a=48 a=52 a=56 a=60 a=64 a=68 a=72 a=76 a=80 a=84 a=88 a=92 a=96 a=100 a=104 a=108 a=112 a=116 a=120 a=124 a=128 a=132 a=136 a=140 a=144 a=148 a=152 a=156 a=160 a=164 a=168 a=172 a=176 a=180 a=184 a=188 a=192 a=196 a=200 a=204 a=208 a=212 a=216 a=220 a=224 a=228 a=232 a=236 a=240 a=244 a=248 a=252 a=8 a=16 a=24 a=32 a=40 a=48 a=56 a=64 a=72 a=80 a=88 a=96 a=104 a=112 a=120 a=128 a=136 a=144 a=152 a=160 a=168 a=176 a=184 a=192 a=200 a=208 a=216 a=224 a=232 a=240 a=248 a=16 a=32 a=48 a=64 a=80 a=96 a=112 a=128 a=144 a=160 a=176 a=192 a=208 a=224 a=240 a=32 a=64 a=96 a=128 a=160 a=192 a=224 a=64 a=128 a=192 a=128 Peso de la carpeta con las imagenes orginales: 14210858\n",
      "Peso de la carpeta con las imagenes orginales: 17803265\n",
      "Ratio de compresión: 0.7982163945770622\n"
     ]
    }
   ],
   "source": [
    "predictor=1 \n",
    "iterations=8\n",
    "gop = pow(2, iterations)\n",
    "num_images = gop - 1\n",
    "\n",
    "#Remove old pictures\n",
    "!rm /home/josecarlosfuentes/Documentos/MCDWT/src/videoTest/originals/*.png\n",
    "\n",
    "#Invoke ffmpeg command to extract GOP\n",
    "!ffmpeg -i '/home/josecarlosfuentes/Documentos/MCDWT/src/videoTest/foreman' -vframes $gop '/home/josecarlosfuentes/Documentos/MCDWT/src/videoTest/originals/'%03d.png\n",
    "\n",
    "#Rename files\n",
    "!cp /home/josecarlosfuentes/Documentos/MCDWT/src/videoTest/originals/001.png /home/josecarlosfuentes/Documentos/MCDWT/src/videoTest/originals/000.png \n",
    "\n",
    "#Create folder for processed images\n",
    "folderPath = \"/home/josecarlosfuentes/Documentos/MCDWT/src/videoTest/processed/itNum\" + str(iterations)\n",
    "\n",
    "try:\n",
    "    os.mkdir(folderPath)\n",
    "except OSError:\n",
    "    print (\"Creation of the directory %s failed\" % folderPath)\n",
    "else:\n",
    "    print (\"Successfully created the directory %s \" % folderPath)\n",
    "    \n",
    "#Copy original images to /tmp folder for working in order place \n",
    "!cp /home/josecarlosfuentes/Documentos/MCDWT/src/videoTest/originals/*.png /tmp\n",
    "\n",
    "#Execute compression scripts\n",
    "!python3 -O MDWT.py -p /tmp/ -N $num_images\n",
    "!python3 -O MCDWT.py -P $predictor -p /tmp/ -T $iterations -N $num_images\n",
    "\n",
    "#Copy high sub-bands images into processed folder\n",
    "!cp /tmp/H????.png $folderPath\n",
    "\n",
    "#Copy low sub-bands images into processed folder\n",
    "!cp /tmp/L????.png $folderPath\n",
    "\n",
    "#Remove all PNG files from /tmp\n",
    "!rm /tmp/*.png\n",
    "\n",
    "#Calculate wieght of folder with originals images\n",
    "originalsWeight = calcular_directorio(r\"/home/josecarlosfuentes/Documentos/MCDWT/src/videoTest/originals\")\n",
    "print(\"Peso de la carpeta con las imagenes orginales: \"+str(originalsWeight))\n",
    "\n",
    "#Calculate weight of folder with processed images\n",
    "processedWeight = calcular_directorio(r\"/home/josecarlosfuentes/Documentos/MCDWT/src/videoTest/processed/itNum\" + str(iterations))\n",
    "print(\"Peso de la carpeta con las imagenes orginales: \"+str(processedWeight))\n",
    "\n",
    "#Show compression ratio\n",
    "print(\"Ratio de compresión: \" + str(originalsWeight/processedWeight))"
   ]
  },
  {
   "cell_type": "code",
   "execution_count": null,
   "metadata": {},
   "outputs": [],
   "source": []
  }
 ],
 "metadata": {
  "kernelspec": {
   "display_name": "Python 3",
   "language": "python",
   "name": "python3"
  },
  "language_info": {
   "codemirror_mode": {
    "name": "ipython",
    "version": 3
   },
   "file_extension": ".py",
   "mimetype": "text/x-python",
   "name": "python",
   "nbconvert_exporter": "python",
   "pygments_lexer": "ipython3",
   "version": "3.6.8"
  }
 },
 "nbformat": 4,
 "nbformat_minor": 4
}
